# xmcd
# 
# Track frame offsets:
#     150
#     15492
#     32295
#     48815
#     65122
#     83455
#     99042
#     112825
#     129090
#     146812
# 
# Disc length: 2191
# 
# Revision: 12
# Processed by: cddbd v1.5.2PL0 Copyright (c) Steve Scherf et al.
# Submitted via: fre:ac v1.0.17
# 
DISCID=68088d0a
DTITLE=BlackHawk - BlackHawk
DYEAR=1994
DGENRE=Oldies
TTITLE0=Goodbye Says It All
TTITLE1=Down In Flames
TTITLE2=Every Once In A While
TTITLE3=I Sure Can Smell The Rain
TTITLE4=That's Just About Right
TTITLE5=One More Heartache
TTITLE6=Love Like This
TTITLE7=Between Ragged And Wrong
TTITLE8=Stone By Stone
TTITLE9=Let 'em Whirl
EXTD=Arista
EXTT0=
EXTT1=
EXTT2=
EXTT3=
EXTT4=
EXTT5=
EXTT6=
EXTT7=
EXTT8=
EXTT9=
PLAYORDER=
